<svg id="Layer_1" data-name="Layer 1" xmlns="http://www.w3.org/2000/svg" viewBox="0 0 727 311"><defs><style>.cls-1{fill:#37bec0;stroke:#000;stroke-width:4.41px;}.cls-1,.cls-2,.cls-3,.cls-4{stroke-miterlimit:10;}.cls-2,.cls-3,.cls-4{fill:none;stroke:#00a6a5;}.cls-2{stroke-width:3px;}.cls-3{stroke-width:2.14px;}.cls-4{stroke-width:2.56px;}.cls-5{fill:#ed4f7e;}</style></defs><title>splash-logo</title><ellipse cx="378" cy="166" rx="338" ry="145"/><ellipse class="cls-1" cx="353" cy="147" rx="338" ry="145"/><rect class="cls-2" x="248" y="241" width="13" height="12.74" transform="translate(-129 224) rotate(-45)"/><rect class="cls-3" x="351" y="298" width="9" height="9.1" transform="translate(-139 312) rotate(-45)"/><path d="M144,242H112V206H77v36H46V122H77v28h35V122h32V242Z" transform="translate(-29 -28)"/><path d="M147,241l68-118,31,59,31,59H147Z" transform="translate(-29 -28)"/><path d="M373,201q-6,17-22,27t-33,11a56,56,0,0,1-30-9,60,60,0,0,1-22-23q-6-12-6-27t6-25a60,60,0,0,1,22-24,58,58,0,0,1,31-9h10a56,56,0,0,1,24,10,53,53,0,0,1,17,21l-46,28Z" transform="translate(-29 -28)"/><path d="M372,167l-6,2a8,8,0,0,0,0,11l6,2,5-2a8,8,0,0,0,0-11Z" transform="translate(-29 -28)"/><path d="M522,237H408q0-26,0-52t0-52l54,53h6l54-54V237Z" transform="translate(-29 -28)"/><path d="M650,237H534l60-104Q632,201,650,237Z" transform="translate(-29 -28)"/><path d="M756,237H663V134l28,31,29,31q1-13,1-35t0-35h34V237Z" transform="translate(-29 -28)"/><circle class="cls-4" cx="435" cy="132" r="8"/><path class="cls-5" d="M127,232H95V196H60v36H29V113H60v28H95V113h32V232Zm-3-3V117H98v27H57V117H33V229H56V192H98v36h25Zm-6-44h-2V122h2q0,16,0,32T118,185Z" transform="translate(-29 -28)"/><path class="cls-5" d="M130,231l68-118,31,59,31,59H130Zm124-4L198,121,136,228H254Zm-53-42a8,8,0,0,1-1,5,5,5,0,0,1-4,3q-4,0-6-4a9,9,0,0,1,0-4,5,5,0,0,1,3-3h1Q199,182,201,185Zm43,36H220v-2h21l-6-13-6-13h1Z" transform="translate(-29 -28)"/><path class="cls-5" d="M356,192q-6,17-22,27t-33,11a56,56,0,0,1-30-9,60,60,0,0,1-22-23q-6-12-6-27t6-25a60,60,0,0,1,22-24,58,58,0,0,1,31-9h10a56,56,0,0,1,24,10,53,53,0,0,1,17,21l-46,28Zm-6,2-51-21,25-15,24-15a47,47,0,0,0-16-17,61,61,0,0,0-22-9h-6a60,60,0,0,0-29,7,52,52,0,0,0-21,21,53,53,0,0,0-6,26q0,20,11,33a63,63,0,0,0,20,16,52,52,0,0,0,24,6l17-3a57,57,0,0,0,19-11Q348,204,350,194Zm-11,4q0,3-4,7l-7,5h-1l5-4,4-5-15-6-16-6v-2Z" transform="translate(-29 -28)"/><path class="cls-5" d="M367,159a11,11,0,1,1-8,3A10,10,0,0,1,367,159Zm0,3-6,2a8,8,0,0,0,0,11l6,2,5-2a8,8,0,0,0,0-11Zm3,12-4,2-4-2a5,5,0,0,1-2-4,5,5,0,0,1,2-4Zm-7-7a4,4,0,0,0-1,3,4,4,0,0,0,1,3h6Z" transform="translate(-29 -28)"/><path class="cls-5" d="M508,231H387V115l60,59,31-29,30-31V231Zm-2-2V118l-58,57h-3l-29-29-29-27V229H506Zm-2-2H391q0-26,0-52t0-52l54,53h6l54-54V227Zm-9-8V183h-2v32l-11,2H466v3h31Z" transform="translate(-29 -28)"/><path class="cls-5" d="M640,231H511l67-116q13,21,31,58Zm-3-2-29-56-30-55L513,230H636Zm-3-2H518l60-104Q615,191,633,227Zm-6-4-16-30h-3l6,13q4,8,5,13H599v3h27Z" transform="translate(-29 -28)"/><path class="cls-5" d="M741,231H642V115l56,63q1-12,1-33t1-33h40V231Zm0-2V114H702v67l-29-31-28-32V230h97Zm-2-3H646V125l28,31,29,31q1-13,1-35t0-35h34V227Zm-7-7V181h-2q0,12-2,36H698v3h34Z" transform="translate(-29 -28)"/><rect class="cls-2" x="515" y="67" width="13" height="12.74" transform="translate(72 363) rotate(-45)"/><circle class="cls-4" cx="203" cy="54" r="8"/><circle class="cls-4" cx="509" cy="254" r="8"/></svg>