<svg id="Layer_1" data-name="Layer 1" xmlns="http://www.w3.org/2000/svg" viewBox="0 0 205 216"><defs><style>.cls-1{fill:#deb181;}.cls-2{fill:#fac691;}.cls-3{fill:#fff;}.cls-4{fill:#583511;}.cls-5{fill:#ec6e62;}.cls-6{fill:#3c3336;}.cls-7{fill:#212323;}.cls-8{fill:#493e45;}</style></defs><title>mark</title><ellipse class="cls-1" cx="190" cy="135" rx="16" ry="17"/><ellipse class="cls-2" cx="16" cy="135" rx="16" ry="17"/><circle class="cls-2" cx="103" cy="129" r="88"/><path class="cls-1" d="M156,59A87,87,0,0,1,36,185,87,87,0,1,0,156,59Z"/><path class="cls-3" d="M87,112L50,102s-5,30,18,32S87,112,87,112Z"/><circle class="cls-4" cx="69" cy="119" r="7"/><path class="cls-3" d="M118,112l34-10s5,30-16,32S118,112,118,112Z"/><circle class="cls-4" cx="135" cy="119" r="7" transform="translate(-44 130) rotate(-45)"/><path class="cls-3" d="M84,157h37s0,30-18,30S84,157,84,157Z"/><path class="cls-5" d="M85,168c2,8,6,19,17,19s15-10,17-19H85Z"/><path class="cls-6" d="M17,142c0-6-11-60-3-84S32,19,52,19s54,1,65,0S160,9,161,0c7,9,7,26,7,26s11,5,16,14,7,17,7,29-1,62-2,71l-12-2s3-29,1-43a35,35,0,0,0-21-26c-6,3-7,6-13,8s-19,1-33-1-39-9-55-6S33,77,28,93s1,45,1,45Z"/><path class="cls-7" d="M168,26l5,3s5,11,2,26-11,19-11,19l-7-4s8-9,10-20A76,76,0,0,0,168,26Z"/><path class="cls-8" d="M154,22S127,35,74,35s58,12,72,6S154,22,154,22Z"/><path class="cls-8" d="M150,50s-1,7-43,3c-84-7,24,12,38,6S150,50,150,50Z"/></svg>