<svg id="Layer_3" data-name="Layer 3" xmlns="http://www.w3.org/2000/svg" viewBox="0 0 205 216"><defs><style>.cls-1{fill:#fac697;}.cls-2{fill:#edb588;}.cls-3{fill:#b2916b;}.cls-4{fill:#fff;}.cls-5{fill:#66716e;}.cls-6{fill:#ed6e63;}</style></defs><title>petert</title><path class="cls-1" d="M190,127a88,88,0,0,1-175,0C15,79,55,25,103,25S190,79,190,127Z"/><ellipse class="cls-1" cx="16" cy="123" rx="16" ry="17"/><ellipse class="cls-1" cx="190" cy="123" rx="16" ry="17"/><path class="cls-2" d="M191,128A88,88,0,0,1,23,162,88,88,0,0,0,179,84,87,87,0,0,1,191,128Z"/><path class="cls-3" d="M16,125s-1-31-3-45S12,38,33,25C43,19,66,6,92,5s32,12,45-5c21,2,47,26,54,37s3,60-1,80c-1,7-1,6-5,7l-2-22s-8-38-34-45-18-8-29-1S95,67,84,57s-22-3-33-1S35,66,29,84s-8,41-10,41H16Z"/><circle class="cls-4" cx="62" cy="107" r="19"/><circle class="cls-5" cx="62" cy="106" r="7" transform="translate(-57 75) rotate(-45)"/><circle class="cls-4" cx="145" cy="107" r="19"/><circle class="cls-5" cx="145" cy="106" r="7" transform="translate(-33 134) rotate(-45)"/><path class="cls-4" d="M73,170h59s0,30-30,30S73,170,73,170Z"/><path class="cls-6" d="M75,181h55s-1,19-29,19S75,181,75,181Z"/></svg>